<?xml version="1.0" encoding="UTF-8"?>
<svg xmlns="http://www.w3.org/2000/svg" viewBox="0 0 390 390">
  <defs>
    <style>
      .cls-1 {
        fill: #202652;
      }

      .cls-2 {
        fill: #3f51ac;
      }

      .cls-3 {
        fill: #0f1520;
      }

      .cls-4 {
        fill: #429ecd;
      }
    </style>
  </defs>
  <g id="Layer_5">
    <circle class="cls-3" cx="195" cy="195" r="195"/>
  </g>
  <g id="_x27_C_x27_">
    <rect class="cls-1" x="75" y="297.31667" width="240" height="37.5"/>
    <rect class="cls-1" x="75" y="55.18333" width="240" height="37.5"/>
    <rect class="cls-1" x="-26.25" y="179.98333" width="240" height="37.5" transform="translate(292.48333 104.98333) rotate(90)"/>
  </g>
  <g id="E_arriba">
    <polygon class="cls-2" points="304.29164 103.52496 274.33333 103.52496 274.29164 103.52496 124.33333 103.52496 124.33333 119.80829 124.33333 138.52496 124.33333 150.49176 124.33333 169.80829 124.33333 185.49176 224.32503 185.49176 224.33333 185.49176 259.32503 185.49176 224.33333 150.50006 224.33333 150.49176 159.33333 150.49176 159.33333 138.52496 274.33333 138.52496 274.33333 138.47632 304.29164 103.52496"/>
  </g>
  <g id="E_abajo">
    <polygon class="cls-4" points="304.29164 285.6846 274.33333 285.6846 274.29164 285.6846 124.33333 285.6846 124.33333 268.24552 124.33333 248.20038 124.33333 235.38421 124.33333 214.69665 124.33333 197.9 224.32503 197.9 224.33333 197.9 259.32503 197.9 224.33333 235.37532 224.33333 235.38421 159.33333 235.38421 159.33333 248.20038 274.33333 248.20038 274.33333 248.25248 304.29164 285.6846"/>
  </g>
</svg>