<?xml version="1.0" encoding="UTF-8"?>
<svg id="Layer_1" xmlns="http://www.w3.org/2000/svg" viewBox="0 0 20 20">
  <defs>
    <style>
      .cls-1 {
        fill: none;
      }

      .cls-2 {
        fill: #00b4d8;
      }

      .cls-3 {
        fill: #4356c5;
      }

      .cls-4 {
        fill: #0077b6;
      }
    </style>
  </defs>
  <circle class="cls-1" cx="10" cy="10" r="10"/>
  <polygon class="cls-4" points="15.99998 4.88415 15.99998 3.00915 4.00002 3.00915 4.00002 4.18667 4.00002 4.88415 4.00002 15.11581 4.00002 16.18668 4.00002 16.99081 15.99998 16.99081 15.99998 15.11581 5.87502 15.11581 5.87502 4.88415 15.99998 4.88415"/>
  <polygon class="cls-3" points="15.46458 5.42625 13.96667 5.42625 13.96458 5.42625 6.46667 5.42625 6.46667 6.24041 6.46667 7.17625 6.46667 7.77459 6.46667 8.74041 6.46667 9.52459 11.46625 9.52459 11.46667 9.52459 13.21625 9.52459 11.46667 7.775 11.46667 7.77459 8.21667 7.77459 8.21667 7.17625 13.96667 7.17625 13.96667 7.17382 15.46458 5.42625"/>
  <polygon class="cls-2" points="15.46458 14.53423 13.96667 14.53423 13.96458 14.53423 6.46667 14.53423 6.46667 13.66228 6.46667 12.66002 6.46667 12.01921 6.46667 10.98483 6.46667 10.145 11.46625 10.145 11.46667 10.145 13.21625 10.145 11.46667 12.01877 11.46667 12.01921 8.21667 12.01921 8.21667 12.66002 13.96667 12.66002 13.96667 12.66262 15.46458 14.53423"/>
</svg>