<svg xmlns="http://www.w3.org/2000/svg" viewBox="0 0 254.44 143.52" width="254.44" height="143.52"><g transform="translate(127.22, 71.76)"><g transform="translate(2.02, 2.43)"><line x1="-129.24" y1="-70.73" x2="-92.16" y2="-74.19" stroke="#ffffff" stroke-width="0.18" stroke-linecap="round" /><line x1="-92.16" y1="-74.19" x2="-82.3" y2="-64.55" stroke="#ffffff" stroke-width="0.18" stroke-linecap="round" /><line x1="-82.3" y1="-64.55" x2="-74.62" y2="-71.53" stroke="#ffffff" stroke-width="0.18" stroke-linecap="round" /><line x1="-74.62" y1="-71.53" x2="-44.5" y2="-67.7" stroke="#ffffff" stroke-width="0.18" stroke-linecap="round" /><line x1="-44.5" y1="-67.7" x2="-40.85" y2="-56.81" stroke="#ffffff" stroke-width="0.18" stroke-linecap="round" /><line x1="-40.85" y1="-56.81" x2="-8.73" y2="-65.2" stroke="#ffffff" stroke-width="0.18" stroke-linecap="round" /><line x1="-8.73" y1="-65.2" x2="5.94" y2="-64.75" stroke="#ffffff" stroke-width="0.18" stroke-linecap="round" /><line x1="5.94" y1="-64.75" x2="11.51" y2="-54.98" stroke="#ffffff" stroke-width="0.18" stroke-linecap="round" /><line x1="11.51" y1="-54.98" x2="31.19" y2="-57.41" stroke="#ffffff" stroke-width="0.18" stroke-linecap="round" /><line x1="31.19" y1="-57.41" x2="56.85" y2="-54.44" stroke="#ffffff" stroke-width="0.18" stroke-linecap="round" /><line x1="56.85" y1="-54.44" x2="67.3" y2="-52.63" stroke="#ffffff" stroke-width="0.18" stroke-linecap="round" /><line x1="67.3" y1="-52.63" x2="86.01" y2="-56.19" stroke="#ffffff" stroke-width="0.18" stroke-linecap="round" /><line x1="86.01" y1="-56.19" x2="99.88" y2="-48.73" stroke="#ffffff" stroke-width="0.18" stroke-linecap="round" /><line x1="99.88" y1="-48.73" x2="112.14" y2="-62.14" stroke="#ffffff" stroke-width="0.18" stroke-linecap="round" /><line x1="-125.83" y1="-46.95" x2="-98.02" y2="-49.46" stroke="#ffffff" stroke-width="0.18" stroke-linecap="round" /><line x1="-98.02" y1="-49.46" x2="-81.76" y2="-39.52" stroke="#ffffff" stroke-width="0.18" stroke-linecap="round" /><line x1="-81.76" y1="-39.52" x2="-69.71" y2="-48.1" stroke="#ffffff" stroke-width="0.18" stroke-linecap="round" /><line x1="-69.71" y1="-48.1" x2="-42.54" y2="-36.54" stroke="#ffffff" stroke-width="0.18" stroke-linecap="round" /><line x1="-42.54" y1="-36.54" x2="-30.68" y2="-39.74" stroke="#ffffff" stroke-width="0.18" stroke-linecap="round" /><line x1="-30.68" y1="-39.74" x2="-23.18" y2="-50.3" stroke="#ffffff" stroke-width="0.18" stroke-linecap="round" /><line x1="-23.18" y1="-50.3" x2="9.57" y2="-52.5" stroke="#ffffff" stroke-width="0.18" stroke-linecap="round" /><line x1="9.57" y1="-52.5" x2="9.81" y2="-46.89" stroke="#ffffff" stroke-width="0.18" stroke-linecap="round" /><line x1="9.81" y1="-46.89" x2="36.63" y2="-41.77" stroke="#ffffff" stroke-width="0.18" stroke-linecap="round" /><line x1="36.63" y1="-41.77" x2="42.82" y2="-39.57" stroke="#ffffff" stroke-width="0.18" stroke-linecap="round" /><line x1="42.82" y1="-39.57" x2="75.93" y2="-45.31" stroke="#ffffff" stroke-width="0.18" stroke-linecap="round" /><line x1="75.93" y1="-45.31" x2="77.58" y2="-36.05" stroke="#ffffff" stroke-width="0.18" stroke-linecap="round" /><line x1="77.58" y1="-36.05" x2="110.79" y2="-28.33" stroke="#ffffff" stroke-width="0.18" stroke-linecap="round" /><line x1="110.79" y1="-28.33" x2="110.29" y2="-42.07" stroke="#ffffff" stroke-width="0.18" stroke-linecap="round" /><line x1="-113.82" y1="-26.54" x2="-103.2" y2="-35.59" stroke="#ffffff" stroke-width="0.18" stroke-linecap="round" /><line x1="-103.2" y1="-35.59" x2="-76.74" y2="-29.2" stroke="#ffffff" stroke-width="0.18" stroke-linecap="round" /><line x1="-76.74" y1="-29.2" x2="-68.54" y2="-35.17" stroke="#ffffff" stroke-width="0.18" stroke-linecap="round" /><line x1="-68.54" y1="-35.17" x2="-47.86" y2="-35.04" stroke="#ffffff" stroke-width="0.18" stroke-linecap="round" /><line x1="-47.86" y1="-35.04" x2="-25.1" y2="-28.37" stroke="#ffffff" stroke-width="0.18" stroke-linecap="round" /><line x1="-25.1" y1="-28.37" x2="-21.09" y2="-33.02" stroke="#ffffff" stroke-width="0.18" stroke-linecap="round" /><line x1="-21.09" y1="-33.02" x2="-0.38" y2="-18.18" stroke="#ffffff" stroke-width="0.18" stroke-linecap="round" /><line x1="-0.38" y1="-18.18" x2="20.87" y2="-26.44" stroke="#ffffff" stroke-width="0.18" stroke-linecap="round" /><line x1="20.87" y1="-26.44" x2="30.51" y2="-25.33" stroke="#ffffff" stroke-width="0.18" stroke-linecap="round" /><line x1="30.51" y1="-25.33" x2="44.74" y2="-11.97" stroke="#ffffff" stroke-width="0.18" stroke-linecap="round" /><line x1="44.74" y1="-11.97" x2="72.46" y2="-23.75" stroke="#ffffff" stroke-width="0.18" stroke-linecap="round" /><line x1="72.46" y1="-23.75" x2="76.03" y2="-10.13" stroke="#ffffff" stroke-width="0.18" stroke-linecap="round" /><line x1="76.03" y1="-10.13" x2="100.71" y2="-19.07" stroke="#ffffff" stroke-width="0.18" stroke-linecap="round" /><line x1="100.71" y1="-19.07" x2="125.2" y2="-17.8" stroke="#ffffff" stroke-width="0.18" stroke-linecap="round" /><line x1="-118.09" y1="-16.4" x2="-102.65" y2="-12.21" stroke="#ffffff" stroke-width="0.18" stroke-linecap="round" /><line x1="-102.65" y1="-12.21" x2="-86.49" y2="-12.28" stroke="#ffffff" stroke-width="0.18" stroke-linecap="round" /><line x1="-86.49" y1="-12.28" x2="-66.47" y2="-7.7" stroke="#ffffff" stroke-width="0.18" stroke-linecap="round" /><line x1="-66.47" y1="-7.7" x2="-39.12" y2="-8.8" stroke="#ffffff" stroke-width="0.18" stroke-linecap="round" /><line x1="-39.12" y1="-8.8" x2="-30.32" y2="-11.27" stroke="#ffffff" stroke-width="0.18" stroke-linecap="round" /><line x1="-30.32" y1="-11.27" x2="-25.41" y2="-17.77" stroke="#ffffff" stroke-width="0.18" stroke-linecap="round" /><line x1="-25.41" y1="-17.77" x2="10.65" y2="-2.41" stroke="#ffffff" stroke-width="0.18" stroke-linecap="round" /><line x1="10.65" y1="-2.41" x2="19.18" y2="-4.34" stroke="#ffffff" stroke-width="0.18" stroke-linecap="round" /><line x1="19.18" y1="-4.34" x2="31.24" y2="3.46" stroke="#ffffff" stroke-width="0.18" stroke-linecap="round" /><line x1="31.24" y1="3.46" x2="42.46" y2="-12.04" stroke="#ffffff" stroke-width="0.18" stroke-linecap="round" /><line x1="42.46" y1="-12.04" x2="60.12" y2="1.88" stroke="#ffffff" stroke-width="0.18" stroke-linecap="round" /><line x1="60.12" y1="1.88" x2="87.83" y2="-10.03" stroke="#ffffff" stroke-width="0.18" stroke-linecap="round" /><line x1="87.83" y1="-10.03" x2="100.75" y2="5.3" stroke="#ffffff" stroke-width="0.18" stroke-linecap="round" /><line x1="100.75" y1="5.3" x2="120.45" y2="-7.33" stroke="#ffffff" stroke-width="0.18" stroke-linecap="round" /><line x1="-113.52" y1="6.54" x2="-98.24" y2="-0.76" stroke="#ffffff" stroke-width="0.18" stroke-linecap="round" /><line x1="-98.24" y1="-0.76" x2="-94.03" y2="-4.2" stroke="#ffffff" stroke-width="0.18" stroke-linecap="round" /><line x1="-94.03" y1="-4.2" x2="-65.43" y2="4.36" stroke="#ffffff" stroke-width="0.18" stroke-linecap="round" /><line x1="-65.43" y1="4.36" x2="-47.98" y2="0.83" stroke="#ffffff" stroke-width="0.18" stroke-linecap="round" /><line x1="-47.98" y1="0.83" x2="-29.62" y2="7.01" stroke="#ffffff" stroke-width="0.18" stroke-linecap="round" /><line x1="-29.62" y1="7.01" x2="-15.5" y2="9.28" stroke="#ffffff" stroke-width="0.18" stroke-linecap="round" /><line x1="-15.5" y1="9.28" x2="-2.98" y2="15.99" stroke="#ffffff" stroke-width="0.18" stroke-linecap="round" /><line x1="-2.98" y1="15.99" x2="14.92" y2="2.46" stroke="#ffffff" stroke-width="0.18" stroke-linecap="round" /><line x1="14.92" y1="2.46" x2="24.17" y2="16.99" stroke="#ffffff" stroke-width="0.18" stroke-linecap="round" /><line x1="24.17" y1="16.99" x2="46.01" y2="17.84" stroke="#ffffff" stroke-width="0.18" stroke-linecap="round" /><line x1="46.01" y1="17.84" x2="60.43" y2="20.73" stroke="#ffffff" stroke-width="0.18" stroke-linecap="round" /><line x1="60.43" y1="20.73" x2="81" y2="8.06" stroke="#ffffff" stroke-width="0.18" stroke-linecap="round" /><line x1="81" y1="8.06" x2="97.68" y2="22.1" stroke="#ffffff" stroke-width="0.18" stroke-linecap="round" /><line x1="97.68" y1="22.1" x2="121.15" y2="21.26" stroke="#ffffff" stroke-width="0.18" stroke-linecap="round" /><line x1="-113.82" y1="8.74" x2="-91.86" y2="22.43" stroke="#ffffff" stroke-width="0.18" stroke-linecap="round" /><line x1="-91.86" y1="22.43" x2="-90.64" y2="27.22" stroke="#ffffff" stroke-width="0.18" stroke-linecap="round" /><line x1="-90.64" y1="27.22" x2="-70.23" y2="16.78" stroke="#ffffff" stroke-width="0.18" stroke-linecap="round" /><line x1="-70.23" y1="16.78" x2="-43.53" y2="14.42" stroke="#ffffff" stroke-width="0.18" stroke-linecap="round" /><line x1="-43.53" y1="14.42" x2="-32.16" y2="21.16" stroke="#ffffff" stroke-width="0.18" stroke-linecap="round" /><line x1="-32.16" y1="21.16" x2="-12.18" y2="17.57" stroke="#ffffff" stroke-width="0.18" stroke-linecap="round" /><line x1="-12.18" y1="17.57" x2="-1.7" y2="30.99" stroke="#ffffff" stroke-width="0.18" stroke-linecap="round" /><line x1="-1.7" y1="30.99" x2="21.5" y2="36.58" stroke="#ffffff" stroke-width="0.18" stroke-linecap="round" /><line x1="21.5" y1="36.58" x2="39.81" y2="38.74" stroke="#ffffff" stroke-width="0.18" stroke-linecap="round" /><line x1="39.81" y1="38.74" x2="57.83" y2="17.69" stroke="#ffffff" stroke-width="0.18" stroke-linecap="round" /><line x1="57.83" y1="17.69" x2="65.02" y2="38.5" stroke="#ffffff" stroke-width="0.18" stroke-linecap="round" /><line x1="65.02" y1="38.5" x2="92.39" y2="22.92" stroke="#ffffff" stroke-width="0.18" stroke-linecap="round" /><line x1="92.39" y1="22.92" x2="103.57" y2="33.48" stroke="#ffffff" stroke-width="0.18" stroke-linecap="round" /><line x1="103.57" y1="33.48" x2="108.18" y2="34.09" stroke="#ffffff" stroke-width="0.18" stroke-linecap="round" /><line x1="-116.84" y1="43.56" x2="-108.63" y2="35.34" stroke="#ffffff" stroke-width="0.18" stroke-linecap="round" /><line x1="-108.63" y1="35.34" x2="-88.79" y2="30.87" stroke="#ffffff" stroke-width="0.18" stroke-linecap="round" /><line x1="-88.79" y1="30.87" x2="-71.26" y2="47.56" stroke="#ffffff" stroke-width="0.18" stroke-linecap="round" /><line x1="-71.26" y1="47.56" x2="-57.36" y2="33.58" stroke="#ffffff" stroke-width="0.18" stroke-linecap="round" /><line x1="-57.36" y1="33.58" x2="-34.07" y2="34.21" stroke="#ffffff" stroke-width="0.18" stroke-linecap="round" /><line x1="-34.07" y1="34.21" x2="-11.54" y2="38.71" stroke="#ffffff" stroke-width="0.18" stroke-linecap="round" /><line x1="-11.54" y1="38.71" x2="6.95" y2="34.71" stroke="#ffffff" stroke-width="0.18" stroke-linecap="round" /><line x1="6.95" y1="34.71" x2="15.08" y2="37.38" stroke="#ffffff" stroke-width="0.18" stroke-linecap="round" /><line x1="15.08" y1="37.38" x2="35.77" y2="51.2" stroke="#ffffff" stroke-width="0.18" stroke-linecap="round" /><line x1="35.77" y1="51.2" x2="55.33" y2="46.47" stroke="#ffffff" stroke-width="0.18" stroke-linecap="round" /><line x1="55.33" y1="46.47" x2="62.72" y2="54.89" stroke="#ffffff" stroke-width="0.18" stroke-linecap="round" /><line x1="62.72" y1="54.89" x2="89.95" y2="40.5" stroke="#ffffff" stroke-width="0.18" stroke-linecap="round" /><line x1="89.95" y1="40.5" x2="103.08" y2="48.66" stroke="#ffffff" stroke-width="0.18" stroke-linecap="round" /><line x1="103.08" y1="48.66" x2="113.58" y2="52.24" stroke="#ffffff" stroke-width="0.18" stroke-linecap="round" /><line x1="-123.86" y1="49.3" x2="-94.87" y2="51.62" stroke="#ffffff" stroke-width="0.18" stroke-linecap="round" /><line x1="-94.87" y1="51.62" x2="-90.04" y2="60.34" stroke="#ffffff" stroke-width="0.18" stroke-linecap="round" /><line x1="-90.04" y1="60.34" x2="-63.73" y2="51.72" stroke="#ffffff" stroke-width="0.18" stroke-linecap="round" /><line x1="-63.73" y1="51.72" x2="-61" y2="47.15" stroke="#ffffff" stroke-width="0.18" stroke-linecap="round" /><line x1="-61" y1="47.15" x2="-28.49" y2="66.34" stroke="#ffffff" stroke-width="0.18" stroke-linecap="round" /><line x1="-28.49" y1="66.34" x2="-19.15" y2="56.53" stroke="#ffffff" stroke-width="0.18" stroke-linecap="round" /><line x1="-19.15" y1="56.53" x2="-4.23" y2="59.26" stroke="#ffffff" stroke-width="0.18" stroke-linecap="round" /><line x1="-4.23" y1="59.26" x2="6.35" y2="58.06" stroke="#ffffff" stroke-width="0.18" stroke-linecap="round" /><line x1="6.35" y1="58.06" x2="22.95" y2="56.8" stroke="#ffffff" stroke-width="0.18" stroke-linecap="round" /><line x1="22.95" y1="56.8" x2="54.66" y2="53.54" stroke="#ffffff" stroke-width="0.18" stroke-linecap="round" /><line x1="54.66" y1="53.54" x2="63.65" y2="61.4" stroke="#ffffff" stroke-width="0.18" stroke-linecap="round" /><line x1="63.65" y1="61.4" x2="94.9" y2="68.88" stroke="#ffffff" stroke-width="0.18" stroke-linecap="round" /><line x1="94.9" y1="68.88" x2="102.92" y2="69.33" stroke="#ffffff" stroke-width="0.18" stroke-linecap="round" /><line x1="102.92" y1="69.33" x2="117.36" y2="68.34" stroke="#ffffff" stroke-width="0.18" stroke-linecap="round" /><line x1="-129.24" y1="-70.73" x2="-125.83" y2="-46.95" stroke="#ffffff" stroke-width="0.18" stroke-linecap="round" /><line x1="-92.16" y1="-74.19" x2="-98.02" y2="-49.46" stroke="#ffffff" stroke-width="0.18" stroke-linecap="round" /><line x1="-82.3" y1="-64.55" x2="-81.76" y2="-39.52" stroke="#ffffff" stroke-width="0.18" stroke-linecap="round" /><line x1="-74.62" y1="-71.53" x2="-69.71" y2="-48.1" stroke="#ffffff" stroke-width="0.18" stroke-linecap="round" /><line x1="-44.5" y1="-67.7" x2="-42.54" y2="-36.54" stroke="#ffffff" stroke-width="0.18" stroke-linecap="round" /><line x1="-40.85" y1="-56.81" x2="-30.68" y2="-39.74" stroke="#ffffff" stroke-width="0.18" stroke-linecap="round" /><line x1="-8.73" y1="-65.2" x2="-23.18" y2="-50.3" stroke="#ffffff" stroke-width="0.18" stroke-linecap="round" /><line x1="5.94" y1="-64.75" x2="9.57" y2="-52.5" stroke="#ffffff" stroke-width="0.18" stroke-linecap="round" /><line x1="11.51" y1="-54.98" x2="9.81" y2="-46.89" stroke="#ffffff" stroke-width="0.18" stroke-linecap="round" /><line x1="31.19" y1="-57.41" x2="36.63" y2="-41.77" stroke="#ffffff" stroke-width="0.18" stroke-linecap="round" /><line x1="56.85" y1="-54.44" x2="42.82" y2="-39.57" stroke="#ffffff" stroke-width="0.18" stroke-linecap="round" /><line x1="67.3" y1="-52.63" x2="75.93" y2="-45.31" stroke="#ffffff" stroke-width="0.18" stroke-linecap="round" /><line x1="86.01" y1="-56.19" x2="77.58" y2="-36.05" stroke="#ffffff" stroke-width="0.18" stroke-linecap="round" /><line x1="99.88" y1="-48.73" x2="110.79" y2="-28.33" stroke="#ffffff" stroke-width="0.18" stroke-linecap="round" /><line x1="112.14" y1="-62.14" x2="110.29" y2="-42.07" stroke="#ffffff" stroke-width="0.18" stroke-linecap="round" /><line x1="-125.83" y1="-46.95" x2="-113.82" y2="-26.54" stroke="#ffffff" stroke-width="0.18" stroke-linecap="round" /><line x1="-98.02" y1="-49.46" x2="-103.2" y2="-35.59" stroke="#ffffff" stroke-width="0.18" stroke-linecap="round" /><line x1="-81.76" y1="-39.52" x2="-76.74" y2="-29.2" stroke="#ffffff" stroke-width="0.18" stroke-linecap="round" /><line x1="-69.71" y1="-48.1" x2="-68.54" y2="-35.17" stroke="#ffffff" stroke-width="0.18" stroke-linecap="round" /><line x1="-42.54" y1="-36.54" x2="-47.86" y2="-35.04" stroke="#ffffff" stroke-width="0.18" stroke-linecap="round" /><line x1="-30.68" y1="-39.74" x2="-25.1" y2="-28.37" stroke="#ffffff" stroke-width="0.18" stroke-linecap="round" /><line x1="-23.18" y1="-50.3" x2="-21.09" y2="-33.02" stroke="#ffffff" stroke-width="0.18" stroke-linecap="round" /><line x1="9.57" y1="-52.5" x2="-0.38" y2="-18.18" stroke="#ffffff" stroke-width="0.18" stroke-linecap="round" /><line x1="9.81" y1="-46.89" x2="20.87" y2="-26.44" stroke="#ffffff" stroke-width="0.18" stroke-linecap="round" /><line x1="36.63" y1="-41.77" x2="30.51" y2="-25.33" stroke="#ffffff" stroke-width="0.18" stroke-linecap="round" /><line x1="42.82" y1="-39.57" x2="44.74" y2="-11.97" stroke="#ffffff" stroke-width="0.18" stroke-linecap="round" /><line x1="75.93" y1="-45.31" x2="72.46" y2="-23.75" stroke="#ffffff" stroke-width="0.18" stroke-linecap="round" /><line x1="77.58" y1="-36.05" x2="76.03" y2="-10.13" stroke="#ffffff" stroke-width="0.18" stroke-linecap="round" /><line x1="110.79" y1="-28.33" x2="100.71" y2="-19.07" stroke="#ffffff" stroke-width="0.18" stroke-linecap="round" /><line x1="110.29" y1="-42.07" x2="125.2" y2="-17.8" stroke="#ffffff" stroke-width="0.18" stroke-linecap="round" /><line x1="-113.82" y1="-26.54" x2="-118.09" y2="-16.4" stroke="#ffffff" stroke-width="0.18" stroke-linecap="round" /><line x1="-103.2" y1="-35.59" x2="-102.65" y2="-12.21" stroke="#ffffff" stroke-width="0.18" stroke-linecap="round" /><line x1="-76.74" y1="-29.2" x2="-86.49" y2="-12.28" stroke="#ffffff" stroke-width="0.18" stroke-linecap="round" /><line x1="-68.54" y1="-35.17" x2="-66.47" y2="-7.7" stroke="#ffffff" stroke-width="0.18" stroke-linecap="round" /><line x1="-47.86" y1="-35.04" x2="-39.12" y2="-8.8" stroke="#ffffff" stroke-width="0.18" stroke-linecap="round" /><line x1="-25.1" y1="-28.37" x2="-30.32" y2="-11.27" stroke="#ffffff" stroke-width="0.18" stroke-linecap="round" /><line x1="-21.09" y1="-33.02" x2="-25.41" y2="-17.77" stroke="#ffffff" stroke-width="0.18" stroke-linecap="round" /><line x1="-0.38" y1="-18.18" x2="10.65" y2="-2.41" stroke="#ffffff" stroke-width="0.18" stroke-linecap="round" /><line x1="20.87" y1="-26.44" x2="19.18" y2="-4.34" stroke="#ffffff" stroke-width="0.18" stroke-linecap="round" /><line x1="30.51" y1="-25.33" x2="31.24" y2="3.46" stroke="#ffffff" stroke-width="0.18" stroke-linecap="round" /><line x1="44.74" y1="-11.97" x2="42.46" y2="-12.04" stroke="#ffffff" stroke-width="0.18" stroke-linecap="round" /><line x1="72.46" y1="-23.75" x2="60.12" y2="1.88" stroke="#ffffff" stroke-width="0.18" stroke-linecap="round" /><line x1="76.03" y1="-10.13" x2="87.83" y2="-10.03" stroke="#ffffff" stroke-width="0.18" stroke-linecap="round" /><line x1="100.71" y1="-19.07" x2="100.75" y2="5.3" stroke="#ffffff" stroke-width="0.18" stroke-linecap="round" /><line x1="125.2" y1="-17.8" x2="120.45" y2="-7.33" stroke="#ffffff" stroke-width="0.18" stroke-linecap="round" /><line x1="-118.09" y1="-16.4" x2="-113.52" y2="6.54" stroke="#ffffff" stroke-width="0.18" stroke-linecap="round" /><line x1="-102.65" y1="-12.21" x2="-98.24" y2="-0.76" stroke="#ffffff" stroke-width="0.18" stroke-linecap="round" /><line x1="-86.49" y1="-12.28" x2="-94.03" y2="-4.2" stroke="#ffffff" stroke-width="0.18" stroke-linecap="round" /><line x1="-66.47" y1="-7.7" x2="-65.43" y2="4.36" stroke="#ffffff" stroke-width="0.18" stroke-linecap="round" /><line x1="-39.12" y1="-8.8" x2="-47.98" y2="0.83" stroke="#ffffff" stroke-width="0.18" stroke-linecap="round" /><line x1="-30.32" y1="-11.27" x2="-29.62" y2="7.01" stroke="#ffffff" stroke-width="0.18" stroke-linecap="round" /><line x1="-25.41" y1="-17.77" x2="-15.5" y2="9.28" stroke="#ffffff" stroke-width="0.18" stroke-linecap="round" /><line x1="10.65" y1="-2.41" x2="-2.98" y2="15.99" stroke="#ffffff" stroke-width="0.18" stroke-linecap="round" /><line x1="19.18" y1="-4.34" x2="14.92" y2="2.46" stroke="#ffffff" stroke-width="0.18" stroke-linecap="round" /><line x1="31.24" y1="3.46" x2="24.17" y2="16.99" stroke="#ffffff" stroke-width="0.18" stroke-linecap="round" /><line x1="42.46" y1="-12.04" x2="46.01" y2="17.84" stroke="#ffffff" stroke-width="0.18" stroke-linecap="round" /><line x1="60.12" y1="1.88" x2="60.43" y2="20.73" stroke="#ffffff" stroke-width="0.18" stroke-linecap="round" /><line x1="87.83" y1="-10.03" x2="81" y2="8.06" stroke="#ffffff" stroke-width="0.18" stroke-linecap="round" /><line x1="100.75" y1="5.3" x2="97.68" y2="22.1" stroke="#ffffff" stroke-width="0.18" stroke-linecap="round" /><line x1="120.45" y1="-7.33" x2="121.15" y2="21.26" stroke="#ffffff" stroke-width="0.18" stroke-linecap="round" /><line x1="-113.52" y1="6.54" x2="-113.82" y2="8.74" stroke="#ffffff" stroke-width="0.18" stroke-linecap="round" /><line x1="-98.24" y1="-0.76" x2="-91.86" y2="22.43" stroke="#ffffff" stroke-width="0.18" stroke-linecap="round" /><line x1="-94.03" y1="-4.2" x2="-90.64" y2="27.22" stroke="#ffffff" stroke-width="0.18" stroke-linecap="round" /><line x1="-65.43" y1="4.36" x2="-70.23" y2="16.78" stroke="#ffffff" stroke-width="0.18" stroke-linecap="round" /><line x1="-47.98" y1="0.83" x2="-43.53" y2="14.42" stroke="#ffffff" stroke-width="0.18" stroke-linecap="round" /><line x1="-29.62" y1="7.01" x2="-32.16" y2="21.16" stroke="#ffffff" stroke-width="0.18" stroke-linecap="round" /><line x1="-15.5" y1="9.28" x2="-12.18" y2="17.57" stroke="#ffffff" stroke-width="0.18" stroke-linecap="round" /><line x1="-2.98" y1="15.99" x2="-1.7" y2="30.99" stroke="#ffffff" stroke-width="0.18" stroke-linecap="round" /><line x1="14.92" y1="2.46" x2="21.5" y2="36.58" stroke="#ffffff" stroke-width="0.18" stroke-linecap="round" /><line x1="24.17" y1="16.99" x2="39.81" y2="38.74" stroke="#ffffff" stroke-width="0.18" stroke-linecap="round" /><line x1="46.01" y1="17.84" x2="57.83" y2="17.69" stroke="#ffffff" stroke-width="0.18" stroke-linecap="round" /><line x1="60.43" y1="20.73" x2="65.02" y2="38.5" stroke="#ffffff" stroke-width="0.18" stroke-linecap="round" /><line x1="81" y1="8.06" x2="92.39" y2="22.92" stroke="#ffffff" stroke-width="0.18" stroke-linecap="round" /><line x1="97.68" y1="22.1" x2="103.57" y2="33.48" stroke="#ffffff" stroke-width="0.18" stroke-linecap="round" /><line x1="121.15" y1="21.26" x2="108.18" y2="34.09" stroke="#ffffff" stroke-width="0.18" stroke-linecap="round" /><line x1="-113.82" y1="8.74" x2="-116.84" y2="43.56" stroke="#ffffff" stroke-width="0.18" stroke-linecap="round" /><line x1="-91.86" y1="22.43" x2="-108.63" y2="35.34" stroke="#ffffff" stroke-width="0.18" stroke-linecap="round" /><line x1="-90.64" y1="27.22" x2="-88.79" y2="30.87" stroke="#ffffff" stroke-width="0.18" stroke-linecap="round" /><line x1="-70.23" y1="16.78" x2="-71.26" y2="47.56" stroke="#ffffff" stroke-width="0.18" stroke-linecap="round" /><line x1="-43.53" y1="14.42" x2="-57.36" y2="33.58" stroke="#ffffff" stroke-width="0.18" stroke-linecap="round" /><line x1="-32.16" y1="21.16" x2="-34.07" y2="34.21" stroke="#ffffff" stroke-width="0.18" stroke-linecap="round" /><line x1="-12.18" y1="17.57" x2="-11.54" y2="38.71" stroke="#ffffff" stroke-width="0.18" stroke-linecap="round" /><line x1="-1.7" y1="30.99" x2="6.95" y2="34.71" stroke="#ffffff" stroke-width="0.18" stroke-linecap="round" /><line x1="21.5" y1="36.58" x2="15.08" y2="37.38" stroke="#ffffff" stroke-width="0.18" stroke-linecap="round" /><line x1="39.81" y1="38.74" x2="35.77" y2="51.2" stroke="#ffffff" stroke-width="0.18" stroke-linecap="round" /><line x1="57.83" y1="17.69" x2="55.33" y2="46.47" stroke="#ffffff" stroke-width="0.18" stroke-linecap="round" /><line x1="65.02" y1="38.5" x2="62.72" y2="54.89" stroke="#ffffff" stroke-width="0.18" stroke-linecap="round" /><line x1="92.39" y1="22.92" x2="89.95" y2="40.5" stroke="#ffffff" stroke-width="0.18" stroke-linecap="round" /><line x1="103.57" y1="33.48" x2="103.08" y2="48.66" stroke="#ffffff" stroke-width="0.18" stroke-linecap="round" /><line x1="108.18" y1="34.09" x2="113.58" y2="52.24" stroke="#ffffff" stroke-width="0.18" stroke-linecap="round" /><line x1="-116.84" y1="43.56" x2="-123.86" y2="49.3" stroke="#ffffff" stroke-width="0.18" stroke-linecap="round" /><line x1="-108.63" y1="35.34" x2="-94.87" y2="51.62" stroke="#ffffff" stroke-width="0.18" stroke-linecap="round" /><line x1="-88.79" y1="30.87" x2="-90.04" y2="60.34" stroke="#ffffff" stroke-width="0.18" stroke-linecap="round" /><line x1="-71.26" y1="47.56" x2="-63.73" y2="51.72" stroke="#ffffff" stroke-width="0.18" stroke-linecap="round" /><line x1="-57.36" y1="33.58" x2="-61" y2="47.15" stroke="#ffffff" stroke-width="0.18" stroke-linecap="round" /><line x1="-34.07" y1="34.21" x2="-28.49" y2="66.34" stroke="#ffffff" stroke-width="0.18" stroke-linecap="round" /><line x1="-11.54" y1="38.71" x2="-19.15" y2="56.53" stroke="#ffffff" stroke-width="0.18" stroke-linecap="round" /><line x1="6.95" y1="34.71" x2="-4.23" y2="59.26" stroke="#ffffff" stroke-width="0.18" stroke-linecap="round" /><line x1="15.08" y1="37.38" x2="6.35" y2="58.06" stroke="#ffffff" stroke-width="0.18" stroke-linecap="round" /><line x1="35.77" y1="51.2" x2="22.95" y2="56.8" stroke="#ffffff" stroke-width="0.18" stroke-linecap="round" /><line x1="55.33" y1="46.47" x2="54.66" y2="53.54" stroke="#ffffff" stroke-width="0.18" stroke-linecap="round" /><line x1="62.72" y1="54.89" x2="63.65" y2="61.4" stroke="#ffffff" stroke-width="0.18" stroke-linecap="round" /><line x1="89.95" y1="40.5" x2="94.9" y2="68.88" stroke="#ffffff" stroke-width="0.18" stroke-linecap="round" /><line x1="103.08" y1="48.66" x2="102.92" y2="69.33" stroke="#ffffff" stroke-width="0.18" stroke-linecap="round" /><line x1="113.58" y1="52.24" x2="117.36" y2="68.34" stroke="#ffffff" stroke-width="0.18" stroke-linecap="round" /></g></g></svg>